<svg width="100" height="100" viewBox="0 0 100 100" fill="none" xmlns="http://www.w3.org/2000/svg">
<path d="M37.5002 79.1667C16.6668 85.4167 16.6668 68.75 8.3335 66.6667M66.6668 91.6667V75.5417C66.8231 73.5548 66.5547 71.5575 65.8794 69.6825C65.2041 67.8074 64.1374 66.0976 62.7502 64.6667C75.8335 63.2083 89.5835 58.25 89.5835 35.5C89.5824 29.6826 87.3447 24.0883 83.3335 19.875C85.2329 14.7854 85.0986 9.15979 82.9585 4.16666C82.9585 4.16666 78.0418 2.70833 66.6668 10.3333C57.1169 7.74509 47.0501 7.74509 37.5002 10.3333C26.1252 2.70833 21.2085 4.16666 21.2085 4.16666C19.0684 9.15979 18.9341 14.7854 20.8335 19.875C16.7924 24.1196 14.5523 29.7644 14.5835 35.625C14.5835 58.2083 28.3335 63.1667 41.4168 64.7917C40.046 66.2082 38.9888 67.8975 38.3139 69.7497C37.6391 71.6018 37.3619 73.5753 37.5002 75.5417V91.6667" stroke="#757575" stroke-width="2" stroke-linecap="round" stroke-linejoin="round"/>
</svg>
