<svg width="50" height="50" viewBox="0 0 50 50" fill="none" xmlns="http://www.w3.org/2000/svg">
<rect x="1.5" y="1.5" width="47" height="47" rx="23.5" stroke="#C1F9F4" stroke-width="3"/>
<path d="M36.3337 37.75V34.9167C36.3337 33.4138 35.7366 31.9724 34.6739 30.9097C33.6112 29.847 32.1699 29.25 30.667 29.25H19.3337C17.8308 29.25 16.3894 29.847 15.3267 30.9097C14.264 31.9724 13.667 33.4138 13.667 34.9167V37.75M30.667 17.9167C30.667 21.0463 28.1299 23.5833 25.0003 23.5833C21.8707 23.5833 19.3337 21.0463 19.3337 17.9167C19.3337 14.7871 21.8707 12.25 25.0003 12.25C28.1299 12.25 30.667 14.7871 30.667 17.9167Z" stroke="#C1F9F4" stroke-width="3" stroke-linecap="round" stroke-linejoin="round"/>
</svg>
