<svg width="218" height="218" viewBox="0 0 218 218" fill="none" xmlns="http://www.w3.org/2000/svg">
<ellipse cx="110.543" cy="109.33" rx="78.6832" ry="76.7404" fill="#042A2D"/>
<g filter="url(#filter0_d_248_966)">
<path d="M154.1 105.526C154.514 108.346 154.703 111.198 154.668 114.083C154.697 116.958 154.478 119.707 154.012 122.328C153.481 124.958 152.721 127.361 151.731 129.535C151.131 130.801 150.319 131.738 149.296 132.347C148.273 132.955 147.239 133.27 146.195 133.292C145.077 133.26 144.087 132.98 143.224 132.452C142.288 131.869 141.648 131.079 141.306 130.082C140.963 129.085 141.087 127.922 141.677 126.592C142.93 123.528 143.71 120.37 144.019 117.117C144.327 113.865 144.228 110.509 143.72 107.049C142.978 101.987 141.604 98.4249 139.6 96.3626C137.532 94.3096 135.152 93.4805 132.461 93.8753C130.218 94.2042 128.578 95.2956 127.541 97.1495C126.495 98.9393 125.846 101.882 125.596 105.976L124.936 116.873C124.547 123.148 123.068 128.012 120.498 131.465C117.855 134.864 114.035 136.93 109.037 137.663C105.897 138.123 102.952 137.901 100.201 136.995C97.45 136.089 94.9763 134.62 92.7798 132.585C90.574 130.487 88.7555 127.907 87.3245 124.844C85.82 121.727 84.7811 118.214 84.2078 114.305C83.6439 110.461 83.5888 106.738 84.0424 103.137C84.496 99.536 85.4498 96.2216 86.9039 93.1939C87.4583 92.0653 88.2246 91.2657 89.2028 90.7949C90.1716 90.2601 91.1827 90.0136 92.2361 90.0555C93.2254 90.1067 94.1242 90.4331 94.9324 91.0345C95.7406 91.636 96.2886 92.4719 96.5765 93.5424C96.8551 94.5488 96.7086 95.7811 96.137 97.2395C95.1392 99.8076 94.5305 102.351 94.311 104.871C94.0914 107.39 94.1884 110.059 94.6019 112.879C95.0343 115.826 95.822 118.296 96.9651 120.288C98.1082 122.281 99.5332 123.741 101.24 124.668C102.874 125.541 104.716 125.828 106.766 125.527C109.073 125.189 110.818 124.147 112.002 122.403C113.122 120.667 113.794 117.885 114.018 114.056L114.692 103.256C115.107 96.7152 116.531 91.6956 118.963 88.1971C121.386 84.6345 125 82.5008 129.805 81.796C132.881 81.3449 135.762 81.5768 138.449 82.4917C141.126 83.3426 143.536 84.8219 145.678 86.9295C147.81 88.973 149.597 91.5582 151.037 94.685C152.478 97.8118 153.499 101.426 154.1 105.526Z" fill="white"/>
<path d="M70.3808 111.071C69.9783 108.25 69.8001 105.397 69.8464 102.513C69.8285 99.6368 70.0579 96.8893 70.5346 94.27C71.0754 91.6417 71.8451 89.2423 72.8437 87.0719C73.4483 85.8081 74.2636 84.8741 75.2894 84.2698C76.3153 83.6655 77.3502 83.3543 78.3943 83.3361C79.5116 83.373 80.5007 83.657 81.3615 84.1884C82.2956 84.7746 82.9319 85.5669 83.2706 86.5653C83.6093 87.5636 83.4809 88.7267 82.8854 90.0546C81.6211 93.1133 80.8284 96.2682 80.5073 99.5194C80.1862 102.771 80.2727 106.127 80.7667 109.589C81.4894 114.654 82.8488 118.221 84.845 120.291C86.9054 122.352 89.2818 123.191 91.9745 122.807C94.2183 122.486 95.8625 121.401 96.9068 119.552C97.9603 117.766 98.6202 114.826 98.8864 110.732L99.5888 99.8384C100.002 93.565 101.5 88.7067 104.083 85.2635C106.74 81.8753 110.568 79.8245 115.569 79.1109C118.71 78.6627 121.655 78.8967 124.402 79.813C127.15 80.7292 129.618 82.2087 131.806 84.2514C134.004 86.3582 135.812 88.9457 137.231 92.014C138.724 95.1373 139.749 98.6543 140.307 102.565C140.856 106.412 140.896 110.135 140.429 113.734C139.961 117.333 138.994 120.644 137.528 123.666C136.969 124.792 136.2 125.589 135.22 126.056C134.249 126.587 133.237 126.829 132.184 126.783C131.195 126.728 130.297 126.398 129.491 125.794C128.686 125.189 128.141 124.351 127.857 123.279C127.583 122.272 127.734 121.04 128.311 119.584C129.319 117.02 129.937 114.478 130.167 111.96C130.396 109.441 130.31 106.772 129.907 103.951C129.486 101.002 128.708 98.5289 127.573 96.5322C126.438 94.5355 125.018 93.0699 123.315 92.1354C121.685 91.256 119.844 90.9626 117.793 91.2554C115.485 91.5847 113.735 92.6193 112.544 94.3592C111.418 96.09 110.735 98.8694 110.496 102.698L109.78 113.495C109.339 120.034 107.896 125.048 105.45 128.537C103.013 132.09 99.391 134.21 94.5827 134.896C91.5054 135.335 88.6251 135.092 85.9418 134.167C83.2677 133.305 80.8639 131.817 78.7303 129.701C76.6059 127.649 74.8295 125.057 73.4013 121.924C71.9731 118.792 70.9663 115.174 70.3808 111.071Z" fill="#C1F9F4"/>
</g>
<defs>
<filter id="filter0_d_248_966" x="62.7492" y="74.8694" width="99.0847" height="74.8871" filterUnits="userSpaceOnUse" color-interpolation-filters="sRGB">
<feFlood flood-opacity="0" result="BackgroundImageFix"/>
<feColorMatrix in="SourceAlpha" type="matrix" values="0 0 0 0 0 0 0 0 0 0 0 0 0 0 0 0 0 0 127 0" result="hardAlpha"/>
<feOffset dy="3.88559"/>
<feGaussianBlur stdDeviation="1.9428"/>
<feComposite in2="hardAlpha" operator="out"/>
<feColorMatrix type="matrix" values="0 0 0 0 0 0 0 0 0 0 0 0 0 0 0 0 0 0 0.25 0"/>
<feBlend mode="normal" in2="BackgroundImageFix" result="effect1_dropShadow_248_966"/>
<feBlend mode="normal" in="SourceGraphic" in2="effect1_dropShadow_248_966" result="shape"/>
</filter>
</defs>
</svg>
