<svg width="127" height="128" viewBox="0 0 127 128" fill="none" xmlns="http://www.w3.org/2000/svg">
<ellipse cx="64.5413" cy="64.3091" rx="45.9397" ry="44.7885" fill="#C1F9F4"/>
<g filter="url(#filter0_d_233_841)">
<path d="M89.7668 62.1156C90.0083 63.7613 90.1188 65.4263 90.0984 67.1104C90.1154 68.7891 89.9877 70.3934 89.7153 71.9235C89.4055 73.459 88.9615 74.8614 88.3832 76.1306C88.033 76.8697 87.5591 77.4168 86.9614 77.7718C86.3637 78.1269 85.76 78.311 85.1504 78.3239C84.4978 78.305 83.9196 78.1414 83.4157 77.8332C82.8689 77.4931 82.4955 77.0321 82.2954 76.4501C82.0954 75.8681 82.1677 75.1888 82.5124 74.4123C83.2438 72.624 83.6995 70.7805 83.8796 68.8819C84.0597 66.9833 84.0016 65.0241 83.7052 63.0044C83.2717 60.0495 82.4697 57.9702 81.2993 56.7663C80.0914 55.5679 78.7017 55.0839 77.1302 55.3143C75.8206 55.5064 74.863 56.1435 74.2573 57.2257C73.6462 58.2705 73.2675 59.988 73.1214 62.3784L72.736 68.7391C72.509 72.4022 71.6452 75.2416 70.1445 77.2574C68.601 79.2412 66.3699 80.4471 63.4514 80.8751C61.6179 81.1439 59.898 81.014 58.2915 80.4854C56.6851 79.9568 55.2405 79.0988 53.9578 77.9113C52.6697 76.6865 51.6077 75.1802 50.7721 73.3923C49.8935 71.5725 49.2868 69.5219 48.9521 67.2403C48.6228 64.9961 48.5906 62.823 48.8555 60.7209C49.1204 58.6188 49.6774 56.6841 50.5265 54.9167C50.8503 54.2579 51.2978 53.7911 51.869 53.5163C52.4348 53.2041 53.0252 53.0602 53.6403 53.0846C54.2181 53.1145 54.7429 53.305 55.2149 53.6561C55.6868 54.0072 56.0069 54.4952 56.175 55.1201C56.3376 55.7076 56.2521 56.4269 55.9183 57.2782C55.3356 58.7774 54.9802 60.2623 54.852 61.733C54.7238 63.2037 54.7804 64.7619 55.0219 66.4076C55.2743 68.1282 55.7343 69.5699 56.4019 70.7329C57.0694 71.8959 57.9016 72.7482 58.8984 73.2898C59.8523 73.7994 60.9279 73.9665 62.1252 73.7909C63.4723 73.5934 64.4915 72.9855 65.183 71.9671C65.837 70.9542 66.2294 69.3302 66.3601 67.095L66.7537 60.7903C66.9961 56.9722 67.8275 54.042 69.2478 51.9998C70.6627 49.9201 72.7733 48.6746 75.5796 48.2631C77.3756 47.9998 79.0581 48.1352 80.6272 48.6693C82.1907 49.166 83.5979 50.0295 84.8486 51.2598C86.0939 52.4527 87.1371 53.9617 87.9782 55.787C88.8194 57.6123 89.4156 59.7218 89.7668 62.1156Z" fill="#042A2D"/>
<path d="M41.3822 65.2872C41.1471 63.6405 41.0431 61.9752 41.0701 60.2911C41.0597 58.6124 41.1937 57.0086 41.472 55.4796C41.7878 53.9453 42.2373 52.5447 42.8205 51.2777C43.1736 50.54 43.6497 49.9948 44.2487 49.642C44.8478 49.2893 45.4522 49.1076 46.0619 49.097C46.7143 49.1185 47.2919 49.2843 47.7946 49.5945C48.3401 49.9367 48.7117 50.3992 48.9095 50.982C49.1073 51.5647 49.0323 52.2437 48.6845 53.0188C47.9462 54.8044 47.4833 56.646 47.2958 58.5439C47.1083 60.4418 47.1587 62.4012 47.4472 64.4221C47.8693 67.3786 48.6631 69.4611 49.8288 70.6695C51.032 71.8726 52.4198 72.362 53.9922 72.1377C55.3025 71.9508 56.2626 71.3174 56.8725 70.2376C57.4877 69.1952 57.8731 67.4791 58.0286 65.0894L58.4387 58.7301C58.68 55.068 59.5549 52.232 61.0634 50.2221C62.6147 48.2442 64.8505 47.047 67.7707 46.6305C69.6052 46.3688 71.3246 46.5054 72.929 47.0403C74.5333 47.5752 75.9746 48.4388 77.2526 49.6312C78.536 50.861 79.592 52.3715 80.4207 54.1626C81.2921 55.9858 81.8908 58.0388 82.2167 60.3217C82.5372 62.5672 82.5609 64.7404 82.2878 66.8414C82.0147 68.9424 81.4502 70.875 80.5942 72.6391C80.2678 73.2966 79.8185 73.7617 79.2462 74.0342C78.6792 74.3442 78.0882 74.4858 77.4732 74.459C76.8956 74.4268 76.3715 74.2343 75.9009 73.8813C75.4303 73.5284 75.1122 73.0392 74.9465 72.4137C74.7861 71.8256 74.8745 71.1065 75.2116 70.2565C75.8001 68.7597 76.1614 67.2762 76.2953 65.806C76.4292 64.3358 76.3787 62.7774 76.1436 61.1307C75.8979 59.4092 75.4435 57.9656 74.7805 56.8001C74.1175 55.6345 73.2887 54.779 72.294 54.2335C71.3421 53.7201 70.2672 53.5489 69.0691 53.7198C67.7214 53.912 66.6998 54.516 66.0043 55.5316C65.3463 56.542 64.9476 58.1645 64.8082 60.3991L64.39 66.7022C64.1327 70.5194 63.2899 73.4463 61.8616 75.483C60.4386 77.5571 58.3232 78.7944 55.5153 79.1949C53.7182 79.4512 52.0363 79.3093 50.4693 78.7691C48.9077 78.2663 47.5039 77.3973 46.258 76.1621C45.0174 74.9644 43.9801 73.4513 43.1461 71.6227C42.3121 69.7942 41.7241 67.6823 41.3822 65.2872Z" fill="#042A2D"/>
</g>
<defs>
<filter id="filter0_d_233_841" x="36.9257" y="44.1545" width="57.3576" height="43.7812" filterUnits="userSpaceOnUse" color-interpolation-filters="sRGB">
<feFlood flood-opacity="0" result="BackgroundImageFix"/>
<feColorMatrix in="SourceAlpha" type="matrix" values="0 0 0 0 0 0 0 0 0 0 0 0 0 0 0 0 0 0 127 0" result="hardAlpha"/>
<feOffset dy="2.26863"/>
<feGaussianBlur stdDeviation="1.13431"/>
<feComposite in2="hardAlpha" operator="out"/>
<feColorMatrix type="matrix" values="0 0 0 0 0 0 0 0 0 0 0 0 0 0 0 0 0 0 0.25 0"/>
<feBlend mode="normal" in2="BackgroundImageFix" result="effect1_dropShadow_233_841"/>
<feBlend mode="normal" in="SourceGraphic" in2="effect1_dropShadow_233_841" result="shape"/>
</filter>
</defs>
</svg>
