<svg width="35" height="35" viewBox="0 0 35 35" fill="none" xmlns="http://www.w3.org/2000/svg">
<rect x="1" y="1" width="33" height="33" rx="16.5" stroke="#C1F9F4" stroke-width="2"/>
<path d="M27.33 28.3731V25.9569C27.33 24.6752 26.8209 23.4461 25.9146 22.5398C25.0083 21.6335 23.7792 21.1244 22.4975 21.1244H12.8325C11.5508 21.1244 10.3217 21.6335 9.41541 22.5398C8.50914 23.4461 8 24.6752 8 25.9569V28.3731M22.4975 11.4594C22.4975 14.1283 20.3339 16.2919 17.665 16.2919C14.9961 16.2919 12.8325 14.1283 12.8325 11.4594C12.8325 8.79046 14.9961 6.62687 17.665 6.62687C20.3339 6.62687 22.4975 8.79046 22.4975 11.4594Z" stroke="#C1F9F4" stroke-width="3" stroke-linecap="round" stroke-linejoin="round"/>
</svg>
