<svg width="36" height="36" viewBox="0 0 36 36" fill="none" xmlns="http://www.w3.org/2000/svg">
<path d="M30.8919 7.22292C30.1471 6.47772 29.2627 5.88657 28.2893 5.48325C27.3159 5.07993 26.2726 4.87234 25.219 4.87234C24.1654 4.87234 23.1221 5.07993 22.1487 5.48325C21.1753 5.88657 20.2909 6.47772 19.5461 7.22292L18.0003 8.76876L16.4544 7.22292C14.9499 5.71837 12.9093 4.87312 10.7815 4.87312C8.65375 4.87312 6.61314 5.71837 5.10859 7.22292C3.60404 8.72747 2.75879 10.7681 2.75879 12.8958C2.75879 15.0236 3.60404 17.0642 5.10859 18.5688L18.0003 31.4604L30.8919 18.5688C31.6371 17.8239 32.2283 16.9395 32.6316 15.9661C33.0349 14.9928 33.2425 13.9495 33.2425 12.8958C33.2425 11.8422 33.0349 10.7989 32.6316 9.82553C32.2283 8.85215 31.6371 7.96778 30.8919 7.22292Z" stroke="#C1F9F4" stroke-width="3" stroke-linecap="round" stroke-linejoin="round"/>
</svg>
